<svg xmlns="http://www.w3.org/2000/svg" width="36.561" height="26.812" viewBox="0 0 36.561 26.812">
  <g id="image_2_" data-name="image (2)" transform="translate(0 -68.267)">
    <g id="Group_2065" data-name="Group 2065" transform="translate(0 68.267)">
      <g id="Group_2064" data-name="Group 2064">
        <path id="Path_39531" data-name="Path 39531" d="M34.733,68.267H1.828A1.83,1.83,0,0,0,0,70.1V93.251a1.83,1.83,0,0,0,1.828,1.828H34.733a1.83,1.83,0,0,0,1.828-1.828V84.214h0V70.1A1.83,1.83,0,0,0,34.733,68.267ZM1.828,93.86a.61.61,0,0,1-.609-.609v-7.56l5.668-5.668a.606.606,0,0,1,.855,0l6.023,6.017L5.945,93.86Zm33.514-.609a.61.61,0,0,1-.609.609H7.668l18.108-18.1a.606.606,0,0,1,.854,0l8.712,8.706V93.25Zm0-10.507L27.5,74.9a1.858,1.858,0,0,0-2.583,0L14.626,85.182,8.605,79.167a1.857,1.857,0,0,0-2.583,0l-4.8,4.8V70.1a.61.61,0,0,1,.609-.609H34.733a.61.61,0,0,1,.609.609Z" transform="translate(0 -68.267)" fill="#666"/>
        <path id="Path_39532" data-name="Path 39532" d="M165.789,128a3.656,3.656,0,1,0,3.656,3.656A3.66,3.66,0,0,0,165.789,128Zm0,6.094a2.437,2.437,0,1,1,2.437-2.437A2.44,2.44,0,0,1,165.789,134.094Z" transform="translate(-150.555 -123.735)" fill="#666"/>
      </g>
    </g>
  </g>
</svg>
