<svg id="apple-logo" xmlns="http://www.w3.org/2000/svg" width="14.714" height="18.048" viewBox="0 0 14.714 18.048">
  <g id="Group_1494" data-name="Group 1494" transform="translate(0)">
    <path id="Path_39306" data-name="Path 39306" d="M14.85,0h.128a3.865,3.865,0,0,1-.973,2.913,3.017,3.017,0,0,1-2.656,1.247,3.749,3.749,0,0,1,.991-2.822A4.279,4.279,0,0,1,14.85,0Z" transform="translate(-4.02)" fill="#32d0d1"/>
    <path id="Path_39307" data-name="Path 39307" d="M16.818,14.387v.036a10.5,10.5,0,0,1-1.5,2.9c-.573.789-1.275,1.85-2.529,1.85-1.083,0-1.8-.7-2.913-.716-1.175-.019-1.82.583-2.894.734H6.613a3.27,3.27,0,0,1-1.889-1.3A11.4,11.4,0,0,1,2.1,11.327V10.52A5.289,5.289,0,0,1,4.413,6.178a3.9,3.9,0,0,1,2.619-.606,6.587,6.587,0,0,1,1.283.368A3.543,3.543,0,0,0,9.6,6.324a3.078,3.078,0,0,0,.9-.275,5.535,5.535,0,0,1,2.894-.514,4.016,4.016,0,0,1,2.951,1.759,3.786,3.786,0,0,0-1.923,3.757A3.878,3.878,0,0,0,16.818,14.387Z" transform="translate(-2.104 -1.139)" fill="#32d0d1"/>
  </g>
</svg>
