<svg xmlns="http://www.w3.org/2000/svg" width="35.7" height="36.461" viewBox="0 0 35.7 36.461">
  <g id="building" transform="translate(0.25 0.256)">
    <g id="Group_240" data-name="Group 240" transform="translate(8.501 14.109)">
      <g id="Group_236" data-name="Group 236">
        <path id="Path_225" data-name="Path 225" d="M104.884,131.227h3.061v1.521h-3.061Z" transform="translate(-104.884 -131.227)" fill="#fff" stroke="#000" stroke-width="0.5"/>
      </g>
      <g id="Group_237" data-name="Group 237" transform="translate(0 3.458)">
        <path id="Path_226" data-name="Path 226" d="M104.884,199.484h3.061V201h-3.061Z" transform="translate(-104.884 -199.484)" fill="#fff" stroke="#000" stroke-width="0.5"/>
      </g>
      <g id="Group_238" data-name="Group 238" transform="translate(0 6.916)">
        <path id="Path_227" data-name="Path 227" d="M104.884,267.74h3.061v1.521h-3.061Z" transform="translate(-104.884 -267.74)" fill="#fff" stroke="#000" stroke-width="0.5"/>
      </g>
      <g id="Group_239" data-name="Group 239" transform="translate(0 10.374)">
        <path id="Path_228" data-name="Path 228" d="M104.884,336h3.061v1.521h-3.061Z" transform="translate(-104.884 -335.997)" fill="#fff" stroke="#000" stroke-width="0.5"/>
      </g>
    </g>
    <g id="Group_246" data-name="Group 246">
      <path id="Path_229" data-name="Path 229" d="M18.763,65.283V43.455l11.789-.016V58.164h2.256V42.1a1.258,1.258,0,0,0-1.13-1.336l-14.045.019a1.246,1.246,0,0,0-1.127,1.336V65.283H4.648V38.852l11.858-3.775V38.11h2.256V33.335a1.2,1.2,0,0,0-1.421-1.29L3.227,36.538a1.319,1.319,0,0,0-.835,1.29V65.283H0v2.671H35.2V65.283Z" transform="translate(0 -32)" fill="#fff" stroke="#000" stroke-width="0.5"/>
      <g id="Group_241" data-name="Group 241" transform="translate(32.554 31.75)">
        <path id="Path_230" data-name="Path 230" d="M406.2,353.008h1.284v1.417H406.2Z" transform="translate(-406.2 -353.008)" fill="#fff" stroke="#000" stroke-width="0.5"/>
      </g>
      <g id="Group_245" data-name="Group 245" transform="translate(23.638 19.408)">
        <g id="Group_242" data-name="Group 242">
          <path id="Path_231" data-name="Path 231" d="M291.624,199.484h3.061V201h-3.061Z" transform="translate(-291.624 -199.484)" fill="#fff" stroke="#000" stroke-width="0.5"/>
        </g>
        <g id="Group_243" data-name="Group 243" transform="translate(0 3.458)">
          <path id="Path_232" data-name="Path 232" d="M291.624,267.74h3.061v1.521h-3.061Z" transform="translate(-291.624 -267.74)" fill="#fff" stroke="#000" stroke-width="0.5"/>
        </g>
        <g id="Group_244" data-name="Group 244" transform="translate(0 6.916)">
          <path id="Path_233" data-name="Path 233" d="M291.624,336h3.061v1.521h-3.061Z" transform="translate(-291.624 -335.997)" fill="#fff" stroke="#000" stroke-width="0.5"/>
        </g>
      </g>
    </g>
  </g>
</svg>
