<svg xmlns="http://www.w3.org/2000/svg" width="36.032" height="39.994" viewBox="0 0 36.032 39.994">
  <g id="customer_1_" data-name="customer (1)" transform="translate(-2.798 0.212)">
    <path id="Path_39485" data-name="Path 39485" d="M5.1,39.582H36.53a2.094,2.094,0,0,0,2.08-2.358L37.18,25.763A4.827,4.827,0,0,0,33.654,21.7l-7.679-1.8-.34-1.371a9.9,9.9,0,1,0-9.642,0l-.34,1.371-7.7,1.81a4.816,4.816,0,0,0-3.5,4.055L3.018,37.22A2.094,2.094,0,0,0,5.1,39.582ZM12.237,9.892a8.577,8.577,0,1,1,8.577,8.577A8.577,8.577,0,0,1,12.237,9.892Zm8.577,9.9a9.842,9.842,0,0,0,3.6-.689l.352,1.416c-.034.481-.389,2.573-3.955,2.573s-3.923-2.1-3.959-2.573l.352-1.417A9.836,9.836,0,0,0,20.814,19.789ZM5.757,25.925a3.492,3.492,0,0,1,2.521-2.938l7.4-1.737c.316,1.156,1.4,3.158,5.138,3.158s4.822-2,5.142-3.158l7.372,1.731a3.5,3.5,0,0,1,2.543,2.945L37.3,37.391a.755.755,0,0,1-.185.606.771.771,0,0,1-.586.264H32.69v-6.6a.66.66,0,1,0-1.32,0v6.6H10.258v-6.6a.66.66,0,1,0-1.32,0v6.6H5.1A.771.771,0,0,1,4.512,38a.756.756,0,0,1-.185-.61Z" fill="#fff" stroke="#000" stroke-width="0.4"/>
    <path id="Path_39486" data-name="Path 39486" d="M27.6,15.474V14.9c1.972-.185,3.447-1.3,3.447-2.7,0-1.651-1.749-2.2-3.447-2.611V6.224a3.224,3.224,0,0,1,1.977.866.6.6,0,0,0,.811.055.528.528,0,0,0,.058-.771A4.416,4.416,0,0,0,27.6,5.122V4.546a.575.575,0,0,0-1.149,0v.576C24.475,5.307,23,6.426,23,7.825c0,1.651,1.749,2.2,3.447,2.611V13.8a3.224,3.224,0,0,1-1.977-.866.6.6,0,0,0-.811-.055.528.528,0,0,0-.058.771A4.416,4.416,0,0,0,26.447,14.9v.575a.575.575,0,0,0,1.149,0Zm2.3-3.278c0,.776-1.005,1.447-2.3,1.6V10.716C29.006,11.079,29.895,11.443,29.895,12.2ZM24.149,7.825c0-.776,1.005-1.447,2.3-1.6V9.3C25.038,8.941,24.149,8.577,24.149,7.825Z" transform="translate(-6.208)" fill="#fff" stroke="#000" stroke-width="0.5"/>
  </g>
</svg>
