<svg xmlns="http://www.w3.org/2000/svg" width="29.203" height="46.501" viewBox="0 0 29.203 46.501">
  <g id="Layer_x0020_1" transform="translate(-95.738 0.15)">
    <g id="_305538952" transform="translate(95.892)">
      <g id="Group_2960" data-name="Group 2960">
        <g id="Group_2958" data-name="Group 2958">
          <g id="_364128584">
            <path id="Path_39891" data-name="Path 39891" d="M96.533,17.506a.582.582,0,0,1-.541-.541l-.09-1.083a12.413,12.413,0,0,1,1.354-5.865c1.895-3.88,5.685-5.865,10.919-5.865h6.587L112.6,3.068a.488.488,0,0,1-.18-.722l.993-2.075A1.246,1.246,0,0,1,113.768,0a.543.543,0,0,1,.361.09l10.377,5.234a.5.5,0,0,1,.271.451.546.546,0,0,1-.271.541L114.129,11.55a.543.543,0,0,1-.361.09,1.246,1.246,0,0,1-.361-.271l-.993-2.075a.488.488,0,0,1,.18-.722l2.166-1.083h-6.587c-3.88,0-6.5,1.354-7.941,3.97A10.392,10.392,0,0,0,99.24,15.7l.09,1.083a.5.5,0,0,1-.18.451.469.469,0,0,1-.361.18ZM108.174,5.234c-3.339,0-7.76.9-9.926,5.324a11.171,11.171,0,0,0-1.263,5.234l.09.541h1.083V15.7a9.674,9.674,0,0,1,1.083-4.692q2.436-4.6,8.933-4.6h8.843a.572.572,0,0,1,.541.451c.09.18-.09.451-.271.541l-3.7,1.895.541,1.083,8.843-4.6-8.843-4.512-.541,1.083,3.7,1.8c.18.18.361.451.271.632a.572.572,0,0,1-.541.451Z" transform="translate(-95.892)" fill="#fff" stroke="#000" stroke-width="0.3" fill-rule="evenodd"/>
          </g>
          <g id="_364117064" transform="translate(0.01 28.695)">
            <path id="Path_39892" data-name="Path 39892" d="M106.919,335.506a.331.331,0,0,1-.271-.09l-10.377-5.234a.5.5,0,0,1-.271-.451.546.546,0,0,1,.271-.541l10.377-5.234a.488.488,0,0,1,.722.181l.993,2.075a.543.543,0,0,1,.09.361,1.245,1.245,0,0,1-.271.361l-2.166,1.083H112.6c3.88,0,6.5-1.354,7.941-3.97a10.392,10.392,0,0,0,.993-4.241l-.09-1.083a.6.6,0,0,1,.541-.632l2.256-.09a.52.52,0,0,1,.541.541l.09,1.083a12.414,12.414,0,0,1-1.354,5.865c-1.895,3.88-5.685,5.865-10.919,5.865h-6.587l2.166,1.083a.488.488,0,0,1,.18.722l-.993,2.075a1.246,1.246,0,0,1-.361.271ZM97.8,329.731l8.843,4.512.541-1.083-3.7-1.8c-.18-.181-.361-.451-.271-.632a.572.572,0,0,1,.541-.451H112.6c3.339,0,7.76-.9,9.926-5.324a11.171,11.171,0,0,0,1.263-5.234l-.09-.541H122.62v.632a9.675,9.675,0,0,1-1.083,4.692q-2.436,4.6-8.933,4.6H103.76a.572.572,0,0,1-.541-.451c-.09-.181.09-.451.271-.541l3.7-1.895-.541-1.083Z" transform="translate(-96 -318)" fill="#fff" stroke="#000" stroke-width="0.3" fill-rule="evenodd"/>
          </g>
        </g>
        <g id="Group_2959" data-name="Group 2959" transform="translate(3.98 12.633)">
          <g id="_364119248" transform="translate(7.49 5.685)">
            <path id="Path_39893" data-name="Path 39893" d="M225.978,212.565A2.829,2.829,0,0,1,223,209.948a.6.6,0,0,1,.541-.632c.361,0,.541.271.541.632a1.918,1.918,0,1,0,1.895-1.624,2.679,2.679,0,1,1,2.978-2.707.6.6,0,0,1-.541.632c-.361,0-.541-.271-.541-.632a1.918,1.918,0,1,0-1.895,1.624,2.679,2.679,0,1,1,0,5.324Z" transform="translate(-223 -203)" fill="#fff" stroke="#000" stroke-width="0.3" fill-rule="evenodd"/>
          </g>
          <g id="_364116488" transform="translate(1.895 1.895)">
            <path id="Path_39894" data-name="Path 39894" d="M169.573,178.145a8.573,8.573,0,1,1,8.573-8.573A8.512,8.512,0,0,1,169.573,178.145Zm0-16.062a7.49,7.49,0,1,0,7.49,7.49A7.471,7.471,0,0,0,169.573,162.083Z" transform="translate(-161 -161)" fill="#fff" stroke="#000" stroke-width="0.3" fill-rule="evenodd"/>
          </g>
          <g id="_364120976" transform="translate(9.926 4.512)">
            <path id="Path_39895" data-name="Path 39895" d="M250.541,201.911a.582.582,0,0,1-.541-.541V190.541a.541.541,0,0,1,1.083,0V201.37A.582.582,0,0,1,250.541,201.911Z" transform="translate(-250 -190)" fill="#fff" stroke="#000" stroke-width="0.3" fill-rule="evenodd"/>
          </g>
          <g id="_364122080">
            <path id="Path_39896" data-name="Path 39896" d="M150.468,160.935a10.468,10.468,0,1,1,10.467-10.467A10.475,10.475,0,0,1,150.468,160.935Zm0-19.852a9.385,9.385,0,1,0,9.385,9.385A9.436,9.436,0,0,0,150.468,141.083Z" transform="translate(-140 -140)" fill="#fff" stroke="#000" stroke-width="0.3" fill-rule="evenodd"/>
          </g>
        </g>
      </g>
    </g>
  </g>
</svg>
