<svg xmlns="http://www.w3.org/2000/svg" xmlns:xlink="http://www.w3.org/1999/xlink" width="14.182" height="15.798" viewBox="0 0 14.182 15.798">
  <defs>
    <linearGradient id="linear-gradient" x1="0.915" y1="17.626" x2="-0.383" y2="16.957" gradientUnits="objectBoundingBox">
      <stop offset="0" stop-color="#00a0ff"/>
      <stop offset="0.007" stop-color="#00a2ff"/>
      <stop offset="0.26" stop-color="#00beff"/>
      <stop offset="0.512" stop-color="#00d2ff"/>
      <stop offset="0.76" stop-color="#00dfff"/>
      <stop offset="1" stop-color="#00e3ff"/>
    </linearGradient>
    <linearGradient id="linear-gradient-2" x1="1.076" y1="49.373" x2="-1.305" y2="49.373" gradientUnits="objectBoundingBox">
      <stop offset="0" stop-color="#ffe000"/>
      <stop offset="0.409" stop-color="#ffbd00"/>
      <stop offset="0.775" stop-color="#ffa600"/>
      <stop offset="1" stop-color="#ff9c00"/>
    </linearGradient>
    <linearGradient id="linear-gradient-3" x1="0.862" y1="32.329" x2="-0.501" y2="30.56" gradientUnits="objectBoundingBox">
      <stop offset="0" stop-color="#ff3743"/>
      <stop offset="1" stop-color="#e30864"/>
    </linearGradient>
    <linearGradient id="linear-gradient-4" x1="-0.188" y1="35.049" x2="0.421" y2="34.259" gradientUnits="objectBoundingBox">
      <stop offset="0" stop-color="#00a06f"/>
      <stop offset="0.068" stop-color="#00a86e"/>
      <stop offset="0.476" stop-color="#00cf6e"/>
      <stop offset="0.801" stop-color="#00e76d"/>
      <stop offset="1" stop-color="#00ef6d"/>
    </linearGradient>
  </defs>
  <g id="google-play" transform="translate(0)">
    <path id="Path_39308" data-name="Path 39308" d="M26.467,6.513a1.23,1.23,0,0,0-.284.863V20.959a1.229,1.229,0,0,0,.284.863l.045.044,7.609-7.609v-.18l-7.609-7.61Z" transform="translate(-26.183 -6.268)" fill="url(#linear-gradient)"/>
    <path id="Path_39309" data-name="Path 39309" d="M286.019,176.126l-2.536-2.538v-.18l2.537-2.537.057.033,3.005,1.708a.933.933,0,0,1,0,1.774l-3.005,1.708Z" transform="translate(-275.544 -165.6)" fill="url(#linear-gradient-2)"/>
    <path id="Path_39310" data-name="Path 39310" d="M45.644,258.6,43.05,256,35.4,263.656a1,1,0,0,0,1.276.038l8.973-5.1" transform="translate(-35.111 -248.102)" fill="url(#linear-gradient-3)"/>
    <path id="Path_39311" data-name="Path 39311" d="M45.644,5.3,36.671.207A1,1,0,0,0,35.4.244L43.05,7.9Z" transform="translate(-35.111 0)" fill="url(#linear-gradient-4)"/>
  </g>
</svg>
