<svg xmlns="http://www.w3.org/2000/svg" width="34.746" height="28.656" viewBox="0 0 34.746 28.656">
  <g id="group_1_" data-name="group (1)" transform="translate(1.43 -1)">
    <g id="Path_218" data-name="Path 218" transform="translate(-2.041 -3.57)" fill="#fff">
      <path d="M 12.72758197784424 18.34671783447266 C 9.001601219177246 18.34346771240234 5.967471599578857 15.3095178604126 5.964001655578613 11.58353805541992 C 5.963891506195068 9.777137756347656 6.667341709136963 8.078618049621582 7.944751739501953 6.801078319549561 C 9.222151756286621 5.523558139801025 10.92050170898438 4.819998264312744 12.72695159912109 4.819998264312744 C 14.53358173370361 4.819898128509521 16.23210144042969 5.523338317871094 17.50964164733887 6.800758361816406 C 18.78716087341309 8.078147888183594 19.49072074890137 9.776497840881348 19.49072074890137 11.58294773101807 C 19.49083137512207 13.38959789276123 18.78736114501953 15.08811855316162 17.50992202758789 16.36563873291016 C 16.2325496673584 17.64307975769043 14.53403663635254 18.34663200378418 12.72753047943115 18.34671783447266 L 12.72758197784424 18.34671783447266 Z M 12.7271614074707 6.775598049163818 C 10.07772159576416 6.777738094329834 7.920511722564697 8.934947967529297 7.918371677398682 11.58438777923584 C 7.918371677398682 14.23627853393555 10.0756721496582 16.39357757568359 12.72736167907715 16.39357757568359 C 15.37905120849609 16.39357757568359 17.53635215759277 14.23627853393555 17.53635215759277 11.58458805084229 C 17.53635215759277 8.93289852142334 15.37905120849609 6.775598049163818 12.72736167907715 6.775598049163818 L 12.72726154327393 6.775598049163818 L 12.7271614074707 6.775598049163818 Z" stroke="none"/>
      <path d="M 12.72780132293701 18.09671783447266 L 12.72769832611084 18.09671783447266 C 14.46743011474609 18.09663581848145 16.10298728942871 17.41909217834473 17.3331413269043 16.18886756896973 C 18.56336212158203 14.95856857299805 19.24082183837891 13.32283782958984 19.24072074890137 11.58294773101807 C 19.24072074890137 9.843277931213379 18.56317138671875 8.207708358764648 17.33287239074707 6.977538108825684 C 16.10255241394043 5.747348308563232 14.46682167053223 5.069898128509521 12.72695159912109 5.069998264312744 C 10.98728179931641 5.069998264312744 9.351711273193359 5.74754810333252 8.121541976928711 6.977848052978516 C 6.891341686248779 8.208168029785156 6.213901519775391 9.843908309936523 6.214001655578613 11.58329772949219 C 6.217351913452148 15.17167854309082 9.139421463012695 18.09358787536621 12.72780132293701 18.09671783447266 M 12.72696208953857 6.525598049163818 L 12.72736167907715 6.525598049163818 C 15.51690196990967 6.525598049163818 17.78635215759277 8.795047760009766 17.78635215759277 11.58458805084229 C 17.78635215759277 14.3741283416748 15.51690196990967 16.64357757568359 12.72736167907715 16.64357757568359 C 9.937821388244629 16.64357757568359 7.668371677398682 14.3741283416748 7.668371677398682 11.58418846130371 C 7.670621871948242 8.797118186950684 9.939891815185547 6.527848243713379 12.72696208953857 6.525598049163818 M 12.72736167907715 18.59671783447266 C 8.855551719665527 18.59333801269531 5.717611789703369 15.45558834075928 5.714001655578613 11.58376789093018 C 5.713771820068359 7.710237979888916 8.85383129119873 4.569998264312744 12.72695159912109 4.569998264312744 C 16.6004810333252 4.569777965545654 19.74072074890137 7.70982837677002 19.74072074890137 11.58294773101807 C 19.74095153808594 15.45648860931396 16.60089111328125 18.59671783447266 12.72736167907715 18.59671783447266 Z M 12.72736167907715 7.025598049163818 C 10.21034145355225 7.027627944946289 8.170401573181152 9.067567825317383 8.16837215423584 11.58458805084229 C 8.16837215423584 14.10244846343994 10.20950126647949 16.14357757568359 12.72736167907715 16.14357757568359 C 15.2452220916748 16.14357757568359 17.28635215759277 14.10244846343994 17.28635215759277 11.58458805084229 C 17.28635215759277 9.066728591918945 15.2452220916748 7.025598049163818 12.72736167907715 7.025598049163818 Z" stroke="none" fill="#000"/>
    </g>
    <g id="Path_219" data-name="Path 219" transform="translate(-0.55 -5.332)" fill="#fff">
      <path d="M 24.55580139160156 18.36102104187012 C 21.77129173278809 18.35775184631348 19.50327110290527 16.08973121643066 19.50000190734863 13.30522155761719 C 19.50000190734863 10.5178918838501 21.76789093017578 8.250001907348633 24.55551147460938 8.250001907348633 C 27.34313201904297 8.250001907348633 29.61102104187012 10.5178918838501 29.61102104187012 13.30551147460938 C 29.61102104187012 16.09313201904297 27.34313201904297 18.36102104187012 24.55551147460938 18.36102104187012 L 24.55580139160156 18.36102104187012 Z M 24.5552921295166 10.24671173095703 C 22.87028121948242 10.24821186065674 21.49821090698242 11.62028121948242 21.49671173095703 13.30529117584229 C 21.49671173095703 14.99214172363281 22.86888122558594 16.36431121826172 24.55551147460938 16.36431121826172 C 26.24214172363281 16.36431121826172 27.61431121826172 14.99214172363281 27.61431121826172 13.30551147460938 C 27.61431121826172 11.61888122558594 26.24214172363281 10.24671173095703 24.55551147460938 10.24671173095703 L 24.55540084838867 10.24671173095703 L 24.5552921295166 10.24671173095703 Z" stroke="none"/>
      <path d="M 24.55610084533691 18.11102104187012 L 24.55598068237305 18.11102104187012 C 27.20552825927734 18.11075782775879 29.36102104187012 15.95512008666992 29.36102104187012 13.30551147460938 C 29.36102104187012 10.65574169158936 27.20528221130371 8.500001907348633 24.55551147460938 8.500001907348633 C 21.90574073791504 8.500001907348633 19.75000190734863 10.65574169158936 19.75000190734863 13.30492115020752 C 19.75311088562012 15.95190143585205 21.90912055969238 18.10791206359863 24.55610084533691 18.11102104187012 M 24.5550708770752 9.996711730957031 L 24.55551147460938 9.996711730957031 C 26.37999153137207 9.996711730957031 27.86431121826172 11.48103141784668 27.86431121826172 13.30551147460938 C 27.86431121826172 15.12999153137207 26.37999153137207 16.61431121826172 24.55551147460938 16.61431121826172 C 22.73103141784668 16.61431121826172 21.24671173095703 15.12999153137207 21.24671173095703 13.30507183074951 C 21.24833106994629 11.48245143890381 22.73245239257812 9.998331069946289 24.5550708770752 9.996711730957031 M 24.55551147460938 18.61102104187012 C 21.62678146362305 18.60758209228516 19.25344085693359 16.2342414855957 19.25000190734863 13.30551147460938 C 19.25000190734863 10.37536144256592 21.62536239624023 8.000001907348633 24.55551147460938 8.000001907348633 C 27.48566055297852 8.000001907348633 29.86102104187012 10.37536144256592 29.86102104187012 13.30551147460938 C 29.86102104187012 16.23566055297852 27.48566055297852 18.61102104187012 24.55551147460938 18.61102104187012 Z M 24.55551147460938 10.49671173095703 C 23.00483131408691 10.49809169769287 21.74809074401855 11.75482177734375 21.74671173095703 13.30551147460938 C 21.74671173095703 14.85677146911621 23.00425148010254 16.11431121826172 24.55551147460938 16.11431121826172 C 26.10677146911621 16.11431121826172 27.36431121826172 14.85677146911621 27.36431121826172 13.30551147460938 C 27.36431121826172 11.75425148010254 26.10677146911621 10.49671173095703 24.55551147460938 10.49671173095703 Z" stroke="none" fill="#000"/>
    </g>
    <g id="Path_220" data-name="Path 220" transform="translate(-2.43 -1.557)" fill="#fff">
      <path d="M 24.0019645690918 30.96299362182617 L 2.158205032348633 30.96299362182617 C 1.657425045967102 30.96299362182617 1.250005006790161 30.5396842956543 1.250005006790161 30.01937294006348 C 1.250594973564148 27.69690322875977 1.889855027198792 25.43344306945801 3.098654985427856 23.47375297546387 C 4.306755065917969 21.51523399353027 6.022604942321777 19.95930290222168 8.060714721679688 18.97418403625488 C 9.644354820251465 18.2087345123291 11.33321475982666 17.82062339782715 13.08038520812988 17.82062339782715 C 15.83715534210205 17.82062339782715 18.52282524108887 18.82060432434082 20.64268493652344 20.63637351989746 L 20.8247241973877 20.79230308532715 L 20.98817443847656 20.61697387695312 C 22.56799507141113 18.92235374450684 24.7812442779541 17.94635391235352 27.06041526794434 17.93924331665039 C 29.31049537658691 17.94171333312988 31.42729568481445 18.84693336486816 33.01981353759766 20.4881534576416 C 34.61431503295898 22.13141441345215 35.4937744140625 24.31677436828613 35.49617385864258 26.64167404174805 C 35.49617385864258 27.16172409057617 35.0887565612793 27.58503341674805 34.58797454833984 27.58503341674805 L 24.96675491333008 27.58503341674805 L 24.66895484924316 27.58503341674805 L 24.72053527832031 27.87833404541016 C 24.8444652557373 28.58313369750977 24.90826416015625 29.30370330810547 24.91017532348633 30.02004432678223 C 24.91017532348633 30.5396842956543 24.50275421142578 30.96299362182617 24.0019645690918 30.96299362182617 Z M 13.08079528808594 19.69279289245605 C 12.77208518981934 19.69279289245605 12.45914459228516 19.70773315429688 12.15067481994629 19.7371940612793 C 7.474615097045898 20.18385314941406 3.683545112609863 23.99424362182617 3.136354923248291 28.79744338989258 L 3.104645013809204 29.07574272155762 L 3.384745121002197 29.07574272155762 L 22.77425575256348 29.07574272155762 L 23.05418586730957 29.07574272155762 L 23.02266502380371 28.79759407043457 C 22.9511547088623 28.16659355163574 22.8188648223877 27.54010391235352 22.62946510314941 26.93551445007324 C 21.32155418395996 22.60441398620605 17.48392486572266 19.69279289245605 13.08079528808594 19.69279289245605 Z M 27.07015419006348 19.82695388793945 C 25.24720573425293 19.82695388793945 23.48734474182129 20.61274337768555 22.2418155670166 21.98284339904785 L 22.099365234375 22.1395435333252 L 22.23050498962402 22.30582427978516 C 22.99905586242676 23.28031349182129 23.61425590515137 24.36732292175293 24.05900573730469 25.53666305541992 L 24.12028503417969 25.69779396057129 L 24.29267501831055 25.69779396057129 L 33.32668685913086 25.69779396057129 L 33.625244140625 25.69779396057129 L 33.57279586791992 25.40387344360352 C 33.11930465698242 22.86266326904297 31.34165573120117 20.83156394958496 28.93357467651367 20.10320281982422 C 28.3275146484375 19.91989326477051 27.70057487487793 19.82695388793945 27.07015419006348 19.82695388793945 Z" stroke="none"/>
      <path d="M 13.08039474487305 18.07061386108398 C 11.3712043762207 18.07061386108398 9.718944549560547 18.45034408569336 8.169515609741211 19.19926452636719 C 6.17436408996582 20.16361427307129 4.494464874267578 21.68709373474121 3.311435699462891 23.60500335693359 C 2.126964569091797 25.52522277832031 1.500576019287109 27.74332427978516 1.499996185302734 30.01937294006348 C 1.499996185302734 30.40183448791504 1.795265197753906 30.71299362182617 2.158203125 30.71299362182617 L 24.0019645690918 30.71299362182617 C 24.36490631103516 30.71299362182617 24.66017532348633 30.40183448791504 24.66017532348633 30.02070426940918 C 24.65830612182617 29.31867408752441 24.59577560424805 28.6124439239502 24.47430419921875 27.9216136932373 L 24.37117385864258 27.33503341674805 L 34.58797454833984 27.33503341674805 C 34.95090484619141 27.33503341674805 35.24616622924805 27.02387428283691 35.24616622924805 26.64193344116211 C 35.24383544921875 24.38229370117188 34.38944625854492 22.2586727142334 32.84039306640625 20.66225433349609 C 31.29529571533203 19.06990432739258 29.24212455749512 18.1916332244873 27.06119537353516 18.18924331665039 C 24.85082626342773 18.19614410400391 22.70394515991211 19.14315414428711 21.17103576660156 20.78745460510254 L 20.84413528442383 21.13810348510742 L 20.48004531860352 20.82624435424805 C 18.40546417236328 19.04924392700195 15.77755546569824 18.07061386108398 13.08039474487305 18.07061386108398 M 22.86899185180664 26.86387252807617 C 23.06262969970703 27.4826545715332 23.19789505004883 28.12373924255371 23.27107620239258 28.76944351196289 L 23.33411407470703 29.32574272155762 L 2.824546813964844 29.32574272155762 L 2.887954711914062 28.76914405822754 C 3.448436737060547 23.84930419921875 7.333974838256836 19.94615364074707 12.12690544128418 19.48833274841309 C 12.44324493408203 19.4581127166748 12.76418495178223 19.44279289245605 13.08079528808594 19.44279289245605 C 17.59442329406738 19.44279289245605 21.52775192260742 22.42490005493164 22.86899185180664 26.86387252807617 M 33.9238166809082 25.94779396057129 L 23.94790458679199 25.94779396057129 L 23.8253345489502 25.62554359436035 C 23.38962554931641 24.47998428344727 22.78700637817383 23.41515350341797 22.03421401977539 22.46064376831055 L 21.77192497253418 22.12808418273926 L 22.05683517456055 21.81468391418457 C 23.34962463378906 20.39257431030273 25.17691421508789 19.57695388793945 27.07015609741211 19.57695388793945 C 27.72512435913086 19.57695388793945 28.37641525268555 19.67349433898926 29.00595474243164 19.8639030456543 C 31.50458526611328 20.61965370178223 33.34879302978516 22.72561454772949 33.81890487670898 25.35995292663574 L 33.9238166809082 25.94779396057129 M 13.08039474487305 17.57061576843262 C 15.84998512268066 17.57061576843262 18.59290885925293 18.55145645141602 20.8053150177002 20.44650459289551 C 22.44123458862305 18.69170379638672 24.69838523864746 17.69661331176758 27.05963516235352 17.68924331665039 C 31.85495567321777 17.69450378417969 35.74106597900391 21.69944381713867 35.74616622924805 26.64141273498535 C 35.74616622924805 27.30063438415527 35.22762680053711 27.83503341674805 34.58797454833984 27.83503341674805 L 24.96675491333008 27.83503341674805 C 25.0934944152832 28.55586433410645 25.15822601318359 29.28680419921875 25.16017532348633 30.01937294006348 C 25.16017532348633 30.6785945892334 24.64162445068359 31.21299362182617 24.0019645690918 31.21299362182617 L 2.158203125 31.21299362182617 C 1.518543243408203 31.21299362182617 0.9999961853027344 30.6785945892334 0.9999961853027344 30.01937294006348 C 1.001235961914062 25.19133377075195 3.710464477539062 20.7991828918457 7.951925277709961 18.74909400939941 C 9.588811874389648 17.95790863037109 11.33979988098145 17.57061576843262 13.08039474487305 17.57061576843262 Z M 22.77425384521484 28.82574272155762 C 22.70437622070312 28.20911407470703 22.57597541809082 27.60104370117188 22.39089584350586 27.01025390625 C 21.02180480957031 22.47660446166992 16.76205444335938 19.54787254333496 12.1744441986084 19.98606300354004 C 7.586864471435547 20.42427444458008 3.921974182128906 24.10999298095703 3.384746551513672 28.82574272155762 L 22.77425384521484 28.82574272155762 Z M 33.32668304443359 25.44779396057129 C 32.8923454284668 23.0139045715332 31.1652946472168 21.03940391540527 28.8611946105957 20.34249305725098 C 26.55709457397461 19.64560127258301 24.06855392456055 20.34505462646484 22.42680549621582 22.15101432800293 C 23.21006393432617 23.1441535949707 23.83947372436523 24.2562427520752 24.29267501831055 25.44779396057129 L 33.32668304443359 25.44779396057129 Z M 27.05962371826172 17.68924331665039 L 27.05963516235352 17.68924331665039 C 27.05962371826172 17.68924331665039 27.05962371826172 17.68924331665039 27.05962371826172 17.68924331665039 Z" stroke="none" fill="#000"/>
    </g>
  </g>
</svg>
