<svg xmlns="http://www.w3.org/2000/svg" width="29.55" height="29.532" viewBox="0 0 29.55 29.532">
  <g id="help" transform="translate(-5.999 -6.036)">
    <g id="LWPOLYLINE" transform="translate(15.967 13.443)">
      <g id="Group_1964" data-name="Group 1964" transform="translate(0)">
        <path id="Path_39488" data-name="Path 39488" d="M27.961,30.342h-.01A1.137,1.137,0,0,1,26.824,29.2l.005-.568a.939.939,0,0,1,.005-.1,5.442,5.442,0,0,1,2.138-3.481c.3-.276.582-.537.823-.809a1.539,1.539,0,0,0,.272-1.829,2.511,2.511,0,0,0-2.759-.989,2.114,2.114,0,0,0-1.536,1.609,1.137,1.137,0,0,1-2.2-.588A4.311,4.311,0,0,1,26.8,19.2a4.73,4.73,0,0,1,5.261,2.114,3.8,3.8,0,0,1-.566,4.428,13.6,13.6,0,0,1-.982.971c-.816.753-1.325,1.257-1.412,1.984l0,.513a1.135,1.135,0,0,1-1.136,1.128Z" transform="translate(-23.537 -19.069)"/>
      </g>
    </g>
    <g id="POINT" transform="translate(19.254 25.871)">
      <g id="Group_1965" data-name="Group 1965">
        <path id="Path_39489" data-name="Path 39489" d="M30.457,43.189a1.146,1.146,0,0,1-.8-.33,1.132,1.132,0,0,1,0-1.608,1.176,1.176,0,0,1,1.6,0,1.127,1.127,0,0,1,.335.8,1.126,1.126,0,0,1-1.137,1.137Z" transform="translate(-29.32 -40.935)"/>
      </g>
    </g>
    <g id="CIRCLE_2_" transform="translate(5.999 6.036)">
      <g id="Group_1966" data-name="Group 1966">
        <path id="Path_39490" data-name="Path 39490" d="M20.733,35.568a14.658,14.658,0,0,1-3.81-.5A14.776,14.776,0,1,1,27.374,7.573a14.774,14.774,0,0,1-6.641,27.995ZM20.8,8.309a12.5,12.5,0,0,0-3.29,24.563,12.4,12.4,0,0,0,3.219.423h0A12.5,12.5,0,0,0,26.358,9.607,12.474,12.474,0,0,0,20.8,8.309Z" transform="translate(-5.999 -6.036)"/>
      </g>
    </g>
  </g>
</svg>
