<svg xmlns="http://www.w3.org/2000/svg" width="39.686" height="39.686" viewBox="0 0 39.686 39.686">
  <path id="inspection" d="M34.288,8H30.234a1.171,1.171,0,0,0-1.169,1.169v4.054a1.171,1.171,0,0,0,1.169,1.169h4.054a1.171,1.171,0,0,0,1.169-1.169V9.168A1.171,1.171,0,0,0,34.288,8Zm-.111,5.112H30.345V9.279h3.832v3.832ZM30.73,11.543a.64.64,0,1,1,.905-.905l.386.386.821-1.015a.64.64,0,1,1,1,.805l-1.268,1.568a.64.64,0,0,1-.464.237h-.034a.64.64,0,0,1-.453-.187Zm16.956,1.11a.64.64,0,0,1-.64.64h-9a.64.64,0,0,1,0-1.28h9A.64.64,0,0,1,47.686,12.653ZM37.407,9.737a.64.64,0,0,1,.64-.64h9a.64.64,0,0,1,0,1.28h-9A.64.64,0,0,1,37.407,9.737Zm-3.119,6.019H30.234a1.171,1.171,0,0,0-1.169,1.169v4.054a1.171,1.171,0,0,0,1.169,1.169h4.054a1.171,1.171,0,0,0,1.169-1.169V16.925a1.171,1.171,0,0,0-1.169-1.169Zm-.111,5.112H30.345V17.036h3.832v3.832ZM30.73,19.3a.64.64,0,1,1,.905-.905l.386.386.821-1.015a.64.64,0,1,1,1,.805l-1.268,1.568a.64.64,0,0,1-.464.237h-.034a.64.64,0,0,1-.453-.187ZM47.686,20.41a.64.64,0,0,1-.64.64h-9a.64.64,0,0,1,0-1.28h9A.64.64,0,0,1,47.686,20.41Zm0-2.917a.64.64,0,0,1-.64.64h-9a.64.64,0,0,1,0-1.28h9A.64.64,0,0,1,47.686,17.494Zm-13.4,6.019H30.234a1.171,1.171,0,0,0-1.169,1.169v4.054a1.171,1.171,0,0,0,1.169,1.169h4.054a1.171,1.171,0,0,0,1.169-1.169V24.682a1.171,1.171,0,0,0-1.169-1.169Zm-.111,5.112H30.345V24.793h3.832v3.832ZM30.73,27.057a.64.64,0,1,1,.905-.905l.386.386.821-1.015a.64.64,0,1,1,1,.805L32.568,27.9a.64.64,0,0,1-.464.237h-.034a.64.64,0,0,1-.453-.187Zm16.956-1.806a.64.64,0,0,1-.64.64h-9a.64.64,0,0,1,0-1.28h9A.64.64,0,0,1,47.686,25.251Zm0,2.917a.64.64,0,0,1-.64.64h-9a.64.64,0,0,1,0-1.28h9A.64.64,0,0,1,47.686,28.167Zm-13.4,3.1H30.234a1.171,1.171,0,0,0-1.169,1.169v4.054a1.171,1.171,0,0,0,1.169,1.169h4.054a1.171,1.171,0,0,0,1.169-1.169V32.439A1.171,1.171,0,0,0,34.288,31.27Zm-.111,5.112H30.345V32.55h3.832v3.832ZM30.73,34.814a.64.64,0,1,1,.905-.905l.386.386.821-1.015a.64.64,0,1,1,1,.805l-1.268,1.568a.64.64,0,0,1-.464.237h-.034a.64.64,0,0,1-.453-.187Zm16.956-1.806a.64.64,0,0,1-.64.64h-9a.64.64,0,0,1,0-1.28h9A.64.64,0,0,1,47.686,33.008Zm0,2.917a.64.64,0,0,1-.64.64h-9a.64.64,0,0,1,0-1.28h9A.64.64,0,0,1,47.686,35.925ZM26.195,39.861a1.328,1.328,0,0,0-1.436-.27l-1.6-1.553a8.183,8.183,0,1,0-2.144,2.349l1.531,1.485a1.328,1.328,0,0,0,.313,1.427l4.134,4.012a1.326,1.326,0,0,0,1.873-.028h0l1.493-1.538a1.326,1.326,0,0,0-.028-1.873Zm-2.4.575-.431.444-1.376-1.335q.217-.221.418-.457ZM9.28,33.816A6.888,6.888,0,1,1,16.168,40.7,6.9,6.9,0,0,1,9.28,33.816ZM29.438,44.853l-1.493,1.538a.047.047,0,0,1-.063,0l-4.134-4.012a.047.047,0,0,1,0-.063l1.493-1.538a.042.042,0,0,1,.031-.013h0a.042.042,0,0,1,.031.012l4.134,4.012a.047.047,0,0,1,0,.063ZM16.168,27.77a6.046,6.046,0,1,0,6.046,6.046A6.053,6.053,0,0,0,16.168,27.77Zm0,10.811a4.766,4.766,0,1,1,4.766-4.766A4.771,4.771,0,0,1,16.168,38.581Zm-7.691-16.3,12.191,3.2a.64.64,0,0,0,.481-.064l5.572-3.2a.64.64,0,0,0,.321-.555V11.84a.64.64,0,0,0-.478-.619L14.375,8.02a.64.64,0,0,0-.416.031l-5.573,2.4A.64.64,0,0,0,8,11.04V21.667a.64.64,0,0,0,.478.619Zm.8-10.417,10.911,2.864v9.3L9.28,21.173ZM21.471,23.762v-9.1l4.292-1.849V21.3ZM14.263,9.314l10.18,2.673L20.78,13.565,10.6,10.892Z" transform="translate(-8 -7.999)" fill="#0a84ff"/>
</svg>
