<svg xmlns="http://www.w3.org/2000/svg" width="33.598" height="33.098" viewBox="0 0 33.598 33.098">
  <g id="Line" transform="translate(-2.733 -1.75)">
    <path id="Path_39523" data-name="Path 39523" d="M5.86,13.5h7.72a3.988,3.988,0,0,0,3.86-4.106V6.106A3.988,3.988,0,0,0,13.58,2H5.86A3.988,3.988,0,0,0,2,6.106V9.39A3.988,3.988,0,0,0,5.86,13.5ZM3.544,6.106A2.393,2.393,0,0,1,5.86,3.642h7.72A2.393,2.393,0,0,1,15.9,6.106V9.39a2.393,2.393,0,0,1-2.316,2.463H5.86A2.393,2.393,0,0,1,3.544,9.39Z" transform="translate(0.983)" fill="#fff" stroke="#000" stroke-width="0.5"/>
    <path id="Path_39524" data-name="Path 39524" d="M38.272,32H30.091A4.03,4.03,0,0,0,26,35.966v3.173A4.03,4.03,0,0,0,30.091,43.1h8.182a4.03,4.03,0,0,0,4.091-3.966V35.966A4.03,4.03,0,0,0,38.272,32Zm2.454,7.138a2.418,2.418,0,0,1-2.454,2.379H30.091a2.418,2.418,0,0,1-2.454-2.379V35.966a2.418,2.418,0,0,1,2.454-2.379h8.182a2.418,2.418,0,0,1,2.454,2.379Z" transform="translate(-6.283 -8.506)" fill="#fff" stroke="#000" stroke-width="0.5"/>
    <path id="Path_39525" data-name="Path 39525" d="M5.86,37.215h7.72a3.665,3.665,0,0,0,3.86-3.431V21.431A3.665,3.665,0,0,0,13.58,18H5.86A3.665,3.665,0,0,0,2,21.431V33.784A3.665,3.665,0,0,0,5.86,37.215ZM3.544,21.431A2.2,2.2,0,0,1,5.86,19.372h7.72A2.2,2.2,0,0,1,15.9,21.431V33.784a2.2,2.2,0,0,1-2.316,2.059H5.86a2.2,2.2,0,0,1-2.316-2.059Z" transform="translate(0.983 -2.617)" fill="#fff" stroke="#000" stroke-width="0.5"/>
    <path id="Path_39526" data-name="Path 39526" d="M37.362,2H29.788A3.664,3.664,0,0,0,26,5.526V18.22a3.664,3.664,0,0,0,3.788,3.526h7.575A3.664,3.664,0,0,0,41.15,18.22V5.526A3.664,3.664,0,0,0,37.362,2Zm2.273,16.22a2.2,2.2,0,0,1-2.273,2.116H29.788a2.2,2.2,0,0,1-2.272-2.116V5.526A2.2,2.2,0,0,1,29.788,3.41h7.575a2.2,2.2,0,0,1,2.273,2.116Z" transform="translate(-5.676)" fill="#fff" stroke="#000" stroke-width="0.5"/>
  </g>
</svg>
