<svg xmlns="http://www.w3.org/2000/svg" width="34.835" height="31.599" viewBox="0 0 34.835 31.599">
  <g id="paper-plane_1_" data-name="paper-plane (1)" transform="translate(0.286 4.535) rotate(-8)">
    <path id="Path_39704" data-name="Path 39704" d="M26.009,26.181a.946.946,0,0,1-.307-.052L.645,17.293A.982.982,0,0,1,0,16.438a.992.992,0,0,1,.507-.945L29.057.111a.932.932,0,0,1,.992.071,1,1,0,0,1,.391.945L26.951,25.345a.984.984,0,0,1-.448.694.926.926,0,0,1-.494.143ZM3.357,16.173l21.878,7.716L28.282,2.745Z" transform="translate(0 0)" fill="#fff" stroke="#000" stroke-width="0.5"/>
    <path id="Path_39705" data-name="Path 39705" d="M9.5,29.181a.6.6,0,0,1-.233-.047.96.96,0,0,1-.517-.9V19.666a1.111,1.111,0,0,1,.2-.65L22.7.3A.645.645,0,0,1,23.762.255,1.142,1.142,0,0,1,23.8,1.6L10.25,20.04v5.288l2.5-4.323a.654.654,0,0,1,1.049-.2,1.128,1.128,0,0,1,.16,1.331l-3.857,6.661a.717.717,0,0,1-.6.387Z" transform="translate(6.45 0)" fill="#fff" stroke="#000" stroke-width="0.5"/>
  </g>
</svg>
