<svg xmlns="http://www.w3.org/2000/svg" width="27.86" height="32.947" viewBox="0 0 27.86 32.947">
  <g id="questions" transform="translate(-39.182 0)">
    <path id="Path_39887" data-name="Path 39887" d="M56.327,26.557c4.142.346,12.175,2.953,10.306-4.071-.385-1.214-1.3-.182-.914,1.032,1.606,4.278-5.231,2.534-7.646,2.434-4.042.086-8.209-.9-12.234-.645.977-6.438.709-13.008.937-19.489A.974.974,0,1,0,44.828,5.8c.088,6.584.674,13.078.068,19.66a8.394,8.394,0,0,0-4.621,2.463c-.139-7.995-.745-16.367.7-24.17.175-.924.756-3.03,2.23-2.679,7.06.486,15.152.121,22.243.35.73,4.989-.391,10.528-.225,15.549a.552.552,0,0,0,1.1.058c.077-.482.132-1.036.2-1.519.568-4.894.874-9.935-.147-14.792-.106-1.1-1.843-.594-2.51-.649C57.015.234,50.042.629,43.2.2,41.264.012,40.419,2.09,40.276,3.75a141.244,141.244,0,0,0-.934,20.813c-1.574,11.554,8.792,7.6,15.947,8.189a71.117,71.117,0,0,0,9.374-.557c.539-.129,1.922.136,1.955-.626a.551.551,0,0,0-.514-.591c-3.576-.253-8.353,1.14-11.921.9-4.065-.907-10.953,1.235-13.6-2.221,2.789-5.3,10.963-2.9,15.744-3.1Z" fill="#0a84ff"/>
    <path id="Path_39888" data-name="Path 39888" d="M267.673,302.051a1.484,1.484,0,1,0,.763-2.791A1.451,1.451,0,0,0,267.673,302.051Z" transform="translate(-212.761 -279.8)" fill="#0a84ff"/>
    <path id="Path_39889" data-name="Path 39889" d="M221.551,101.16a.71.71,0,1,0,1.41.147,4.346,4.346,0,0,1,.636-2.341c3.131-3.482,8.543,2.91,2.2,6.254a2.3,2.3,0,0,0-.594,2.539.977.977,0,0,0,1.832-.681,1.466,1.466,0,0,1-.07-.448C236.213,99.949,223.183,91.344,221.551,101.16Z" transform="translate(-170.517 -90.448)" fill="#0a84ff"/>
  </g>
</svg>
