<svg xmlns="http://www.w3.org/2000/svg" width="22.273" height="35.529" viewBox="0 0 22.273 35.529">
  <path id="bidding_2_" data-name="bidding (2)" d="M156.909,37.415a1.974,1.974,0,0,0-.754-1.508.312.312,0,0,1,0-.5,1.974,1.974,0,0,0,.755-1.508,2.513,2.513,0,0,0-2.737-2.191h-.759a2.687,2.687,0,0,0-2.675-1.729h-.867V27.754c4.023-.769,7.024-3.671,7.024-7.124,0-4.038-4.1-7.323-9.149-7.323S138.6,16.592,138.6,20.63c0,3.453,3,6.355,7.024,7.124v2.227h-3.184l-.044,0h-.009l-.019,0a4.993,4.993,0,0,0-3.519,2.722,1.335,1.335,0,0,0-.263-.027H136.12a1,1,0,0,0-1.083.867V44.3a1,1,0,0,0,1.083.867h2.465a1.347,1.347,0,0,0,.2-.016,2.975,2.975,0,0,0,2.706,1.477h4.129V48a.5.5,0,0,0,.542.434h3.164a.5.5,0,0,0,.542-.434V46.633h4.3a2.513,2.513,0,0,0,2.737-2.191,1.974,1.974,0,0,0-.754-1.507.312.312,0,0,1,0-.5,1.883,1.883,0,0,0,0-3.015.312.312,0,0,1,0-.5,1.974,1.974,0,0,0,.755-1.507ZM138.584,44.3h-2.463V33.549h2.464V44.3ZM150.739,30.85a1.692,1.692,0,0,1,1.546.861h-2.414V30.85ZM139.683,20.631c0-3.559,3.617-6.455,8.064-6.455s8.064,2.9,8.064,6.455-3.617,6.455-8.064,6.455S139.683,24.19,139.683,20.631Zm9.1,7.276v3.8h-2.079v-3.8c.341.031.688.048,1.04.048s.7-.017,1.04-.048Zm-3.164,2.943v.861H145.3a2.477,2.477,0,0,1-1.975-.861Zm3.164,16.717h-2.079v-.934h2.079Zm3.788-11.475h2.471a1.224,1.224,0,0,0,.324.413,1.134,1.134,0,0,1,0,1.818,1.223,1.223,0,0,0-.324.413h-2.471a.445.445,0,1,0,0,.868h2.471a1.225,1.225,0,0,0,.324.413,1.134,1.134,0,0,1,0,1.818,1.225,1.225,0,0,0-.324.413h-2.471a.445.445,0,1,0,0,.868h2.471a1.224,1.224,0,0,0,.324.413,1.191,1.191,0,0,1,.456.909,1.517,1.517,0,0,1-1.652,1.322H141.493a1.675,1.675,0,0,1-1.824-1.46V33.548a4.378,4.378,0,0,1,2.468-2.632l.065.108a3.514,3.514,0,0,0,3.094,1.556h8.875a1.517,1.517,0,0,1,1.652,1.322,1.191,1.191,0,0,1-.456.909,1.224,1.224,0,0,0-.324.413h-2.471a.445.445,0,1,0,0,.868Zm-4.827-10.5a.5.5,0,0,1-.542-.434v-.727c-1.491-.184-2.629-1.109-2.629-2.221a.556.556,0,0,1,1.085,0c0,.764.936,1.386,2.087,1.386s2.087-.622,2.087-1.386c0-.96-.766-1.143-2.119-1.382-1.181-.209-2.8-.495-2.8-2.023,0-.981.986-1.8,2.288-1.981V16.1a.556.556,0,0,1,1.085,0v.731c1.3.181,2.288,1,2.288,1.981a.556.556,0,0,1-1.085,0c0-.634-.783-1.15-1.746-1.15S146,18.176,146,18.81c0,.755.564.93,1.947,1.175,1.253.222,2.97.525,2.97,2.23,0,1.112-1.138,2.037-2.629,2.221v.727a.5.5,0,0,1-.542.434Z" transform="translate(-134.837 -13.107)" fill="#fff" stroke="#000" stroke-width="0.4"/>
</svg>
