<svg xmlns="http://www.w3.org/2000/svg" width="33.599" height="33.599" viewBox="0 0 33.599 33.599">
  <g id="settings" transform="translate(0.25 0.25)">
    <g id="Group_247" data-name="Group 247">
      <path id="Path_235" data-name="Path 235" d="M31.405,13.076l-2.323-.394a13.118,13.118,0,0,0-.933-2.254l1.369-1.915A2.039,2.039,0,0,0,29.3,5.878l-2.06-2.06a2.03,2.03,0,0,0-1.445-.6,2.009,2.009,0,0,0-1.182.38L22.686,4.966A12.982,12.982,0,0,0,20.349,4l-.387-2.3A2.043,2.043,0,0,0,17.943,0H15.032a2.043,2.043,0,0,0-2.019,1.708l-.4,2.351a12.8,12.8,0,0,0-2.247.947l-1.9-1.369a2.042,2.042,0,0,0-2.634.221L3.761,5.92A2.047,2.047,0,0,0,3.54,8.554L4.923,10.5A12.813,12.813,0,0,0,4,12.758l-2.3.387A2.043,2.043,0,0,0,0,15.164v2.911a2.043,2.043,0,0,0,1.708,2.019l2.351.4a12.8,12.8,0,0,0,.947,2.247L3.644,24.637a2.039,2.039,0,0,0,.221,2.634l2.06,2.06a2.03,2.03,0,0,0,1.445.6,2.009,2.009,0,0,0,1.182-.38L10.5,28.17a13.081,13.081,0,0,0,2.185.9l.387,2.323A2.043,2.043,0,0,0,15.087,33.1H18a2.043,2.043,0,0,0,2.019-1.708l.394-2.323a13.118,13.118,0,0,0,2.254-.933L24.587,29.5a2.03,2.03,0,0,0,1.189.38h0a2.03,2.03,0,0,0,1.445-.6l2.06-2.06a2.047,2.047,0,0,0,.221-2.634l-1.369-1.922a13.024,13.024,0,0,0,.933-2.254l2.323-.387A2.043,2.043,0,0,0,33.1,18.006V15.1A2.018,2.018,0,0,0,31.405,13.076Zm-.159,4.93a.179.179,0,0,1-.152.18l-2.9.484a.928.928,0,0,0-.747.685,11.069,11.069,0,0,1-1.2,2.9.935.935,0,0,0,.041,1.016l1.708,2.406a.188.188,0,0,1-.021.235l-2.06,2.06a.176.176,0,0,1-.131.055.17.17,0,0,1-.1-.035l-2.4-1.708a.934.934,0,0,0-1.016-.041,11.069,11.069,0,0,1-2.9,1.2.918.918,0,0,0-.685.747l-.491,2.9a.179.179,0,0,1-.18.152H15.094a.179.179,0,0,1-.18-.152l-.484-2.9a.928.928,0,0,0-.685-.747,11.493,11.493,0,0,1-2.835-1.162.957.957,0,0,0-.47-.124.911.911,0,0,0-.539.173l-2.42,1.722a.206.206,0,0,1-.1.035.185.185,0,0,1-.131-.055l-2.06-2.06a.187.187,0,0,1-.021-.235l1.7-2.385a.947.947,0,0,0,.041-1.023,10.964,10.964,0,0,1-1.217-2.89.947.947,0,0,0-.747-.685l-2.925-.5a.179.179,0,0,1-.152-.18V15.164a.179.179,0,0,1,.152-.18L4.9,14.5a.935.935,0,0,0,.754-.691,11.058,11.058,0,0,1,1.182-2.9A.923.923,0,0,0,6.79,9.9L5.068,7.475a.188.188,0,0,1,.021-.235l2.06-2.06a.176.176,0,0,1,.131-.055.17.17,0,0,1,.1.035L9.77,6.86a.947.947,0,0,0,1.023.041,10.964,10.964,0,0,1,2.89-1.217.947.947,0,0,0,.685-.747l.5-2.925a.179.179,0,0,1,.18-.152h2.911a.179.179,0,0,1,.18.152L18.62,4.9a.935.935,0,0,0,.691.754,11.223,11.223,0,0,1,2.966,1.217.935.935,0,0,0,1.016-.041L25.68,5.111a.206.206,0,0,1,.1-.035.185.185,0,0,1,.131.055l2.06,2.06A.188.188,0,0,1,28,7.427l-1.708,2.4a.934.934,0,0,0-.041,1.016,11.069,11.069,0,0,1,1.2,2.9.918.918,0,0,0,.747.685l2.9.491a.179.179,0,0,1,.152.18v2.911Z" transform="translate(0 -0.001)" fill="#fff" stroke="#000" stroke-width="0.5"/>
      <path id="Path_236" data-name="Path 236" d="M141.214,136a5.114,5.114,0,1,0,5.114,5.114A5.117,5.117,0,0,0,141.214,136Zm0,8.891a3.777,3.777,0,1,1,3.777-3.777A3.78,3.78,0,0,1,141.214,144.892Z" transform="translate(-124.66 -124.569)" fill="#fff" stroke="#000" stroke-width="0.5"/>
    </g>
  </g>
</svg>
