<svg xmlns="http://www.w3.org/2000/svg" xmlns:xlink="http://www.w3.org/1999/xlink" width="19.018" height="19" viewBox="0 0 19.018 19">
  <defs>
    <clipPath id="clip-path">
      <path id="Path_39652" data-name="Path 39652" d="M0,0H19.018V19H0Z" fill="none"/>
    </clipPath>
  </defs>
  <g id="filter_3_" data-name="filter (3)" clip-path="url(#clip-path)">
    <path id="Path_39651" data-name="Path 39651" d="M14.241,14.271A2.377,2.377,0,1,1,11.864,11.9,2.376,2.376,0,0,1,14.241,14.271Zm-5.852.8a3.568,3.568,0,0,0,6.95,0h1.35a.594.594,0,1,0,0-1.187H15.41a3.567,3.567,0,0,0-7.091,0H2.844a.594.594,0,1,0,0,1.188Zm-3.1-9.512A2.377,2.377,0,1,1,7.669,7.937,2.376,2.376,0,0,1,5.291,5.562ZM7.669,2a3.567,3.567,0,0,1,3.475,2.759h5.545a.594.594,0,1,1,0,1.188H11.214a3.567,3.567,0,0,1-7.091,0H2.844a.594.594,0,1,1,0-1.187h1.35A3.567,3.567,0,0,1,7.669,2Z" transform="translate(-0.467 -0.417)" fill-rule="evenodd"/>
  </g>
</svg>
