<svg xmlns="http://www.w3.org/2000/svg" width="29.055" height="30.149" viewBox="0 0 29.055 30.149">
  <g id="task" transform="translate(-19.713 -18.045)">
    <path id="Path_39871" data-name="Path 39871" d="M25.09,18.045H21.517a1.806,1.806,0,0,0-1.8,1.8v3.573a1.806,1.806,0,0,0,1.8,1.8H25.09a1.806,1.806,0,0,0,1.8-1.8V19.849A1.806,1.806,0,0,0,25.09,18.045Zm.82,5.377a.821.821,0,0,1-.82.82H21.517a.821.821,0,0,1-.82-.82V19.849a.821.821,0,0,1,.82-.82H25.09a.821.821,0,0,1,.82.82Z" fill="#0a84ff"/>
    <path id="Path_39872" data-name="Path 39872" d="M25.09,88.063H21.517a1.806,1.806,0,0,0-1.8,1.8V93.44a1.806,1.806,0,0,0,1.8,1.8H25.09a1.806,1.806,0,0,0,1.8-1.8V89.867A1.806,1.806,0,0,0,25.09,88.063Zm.82,5.377a.821.821,0,0,1-.82.82H21.517a.821.821,0,0,1-.82-.82V89.867a.821.821,0,0,1,.82-.82H25.09a.821.821,0,0,1,.82.82Z" transform="translate(0 -47.05)" fill="#0a84ff"/>
    <path id="Path_39873" data-name="Path 39873" d="M25.09,53.054H21.517a1.806,1.806,0,0,0-1.8,1.8v3.573a1.806,1.806,0,0,0,1.8,1.8H25.09a1.806,1.806,0,0,0,1.8-1.8V54.858A1.806,1.806,0,0,0,25.09,53.054Zm.82,5.377a.821.821,0,0,1-.82.82H21.517a.821.821,0,0,1-.82-.82V54.858a.821.821,0,0,1,.82-.82H25.09a.821.821,0,0,1,.82.82Z" transform="translate(0 -23.525)" fill="#0a84ff"/>
    <path id="Path_39874" data-name="Path 39874" d="M51.2,19.029H67.515a.492.492,0,1,0,0-.984H51.2a.492.492,0,1,0,0,.984Z" transform="translate(-20.828)" fill="#0a84ff"/>
    <path id="Path_39875" data-name="Path 39875" d="M51.2,37.922H69.1a.492.492,0,0,0,0-.984H51.2a.492.492,0,1,0,0,.984Z" transform="translate(-20.828 -12.696)" fill="#0a84ff"/>
    <path id="Path_39876" data-name="Path 39876" d="M51.2,89.047H67.515a.492.492,0,1,0,0-.984H51.2a.492.492,0,1,0,0,.984Z" transform="translate(-20.828 -47.05)" fill="#0a84ff"/>
    <path id="Path_39877" data-name="Path 39877" d="M69.1,106.955H51.2a.492.492,0,1,0,0,.984H69.1a.492.492,0,0,0,0-.984Z" transform="translate(-20.828 -59.745)" fill="#0a84ff"/>
    <path id="Path_39878" data-name="Path 39878" d="M51.2,54.038H67.515a.492.492,0,0,0,0-.984H51.2a.492.492,0,0,0,0,.984Z" transform="translate(-20.828 -23.525)" fill="#0a84ff"/>
    <path id="Path_39879" data-name="Path 39879" d="M69.1,71.946H51.2a.492.492,0,1,0,0,.984H69.1a.492.492,0,0,0,0-.984Z" transform="translate(-20.828 -36.22)" fill="#0a84ff"/>
  </g>
</svg>
