<svg xmlns="http://www.w3.org/2000/svg" width="29.492" height="38.53" viewBox="0 0 29.492 38.53">
  <g id="to-do-list" transform="translate(0.35 0.35)">
    <path id="Path_210" data-name="Path 210" d="M88.605,3.408a4.025,4.025,0,0,0-2.87-1.192H83.9V1.847A1.848,1.848,0,0,0,82.058,0H68.77a1.848,1.848,0,0,0-1.846,1.847v.369H65.086A4.066,4.066,0,0,0,61.03,6.276L61,33.762a4.06,4.06,0,0,0,4.056,4.068H85.7a4.065,4.065,0,0,0,4.056-4.059l.03-27.486a4.04,4.04,0,0,0-1.186-2.876ZM69.139,2.217h12.55V4.433H69.139Zm18.41,31.552A1.848,1.848,0,0,1,85.7,35.613H65.056a1.845,1.845,0,0,1-1.844-1.849l.03-27.486a1.848,1.848,0,0,1,1.844-1.845h1.838V4.8A1.848,1.848,0,0,0,68.77,6.65H82.058A1.848,1.848,0,0,0,83.9,4.8V4.433h1.831a1.846,1.846,0,0,1,1.844,1.849Z" transform="translate(-61 0)" fill="#fff" stroke="#666" stroke-width="0.7"/>
    <path id="Path_211" data-name="Path 211" d="M247.113,171.762h7.2a.89.89,0,1,0,0-1.762h-7.2a.89.89,0,1,0,0,1.762Z" transform="translate(-231.703 -156.402)" fill="#fff" stroke="#666" stroke-width="0.7"/>
    <path id="Path_214" data-name="Path 214" d="M133.661,140.029l-2.409,2.092-.568-.493a1.159,1.159,0,0,0-1.477,0,.826.826,0,0,0,0,1.283l1.306,1.135a1.159,1.159,0,0,0,1.477,0l3.147-2.734a.826.826,0,0,0,0-1.283A1.159,1.159,0,0,0,133.661,140.029Z" transform="translate(-123.396 -128.656)" fill="#fff" stroke="#666" stroke-width="0.7"/>
    <path id="Path_39473" data-name="Path 39473" d="M247.113,171.762h7.2a.89.89,0,1,0,0-1.762h-7.2a.89.89,0,1,0,0,1.762Z" transform="translate(-231.874 -148.303)" fill="#fff" stroke="#666" stroke-width="0.7"/>
    <path id="Path_39474" data-name="Path 39474" d="M133.661,140.029l-2.409,2.092-.568-.493a1.159,1.159,0,0,0-1.477,0,.826.826,0,0,0,0,1.283l1.306,1.135a1.159,1.159,0,0,0,1.477,0l3.147-2.734a.826.826,0,0,0,0-1.283A1.159,1.159,0,0,0,133.661,140.029Z" transform="translate(-123.567 -120.447)" fill="#fff" stroke="#666" stroke-width="0.7"/>
    <path id="Path_39475" data-name="Path 39475" d="M247.113,171.762h7.2a.89.89,0,1,0,0-1.762h-7.2a.89.89,0,1,0,0,1.762Z" transform="translate(-231.874 -140.205)" fill="#fff" stroke="#666" stroke-width="0.7"/>
    <path id="Path_39476" data-name="Path 39476" d="M133.661,140.029l-2.409,2.092-.568-.493a1.159,1.159,0,0,0-1.477,0,.826.826,0,0,0,0,1.283l1.306,1.135a1.159,1.159,0,0,0,1.477,0l3.147-2.734a.826.826,0,0,0,0-1.283A1.159,1.159,0,0,0,133.661,140.029Z" transform="translate(-123.567 -112.238)" fill="#fff" stroke="#666" stroke-width="0.7"/>
  </g>
</svg>
