<svg xmlns="http://www.w3.org/2000/svg" width="26.972" height="35.252" viewBox="0 0 26.972 35.252">
  <g id="to-do-list" transform="translate(0.25 0.25)">
    <path id="Path_210" data-name="Path 210" d="M86.381,3.131a3.7,3.7,0,0,0-2.638-1.095H82.058V1.7a1.7,1.7,0,0,0-1.7-1.7H68.144a1.7,1.7,0,0,0-1.7,1.7v.339h-1.69a3.736,3.736,0,0,0-3.729,3.729L61,31.015a3.731,3.731,0,0,0,3.729,3.737H83.714a3.736,3.736,0,0,0,3.729-3.729l.028-25.25a3.71,3.71,0,0,0-1.091-2.642Zm-17.9-1.095H80.022V4.073H68.483ZM85.409,31.021a1.7,1.7,0,0,1-1.7,1.7H64.729a1.7,1.7,0,0,1-1.7-1.7l.028-25.25a1.7,1.7,0,0,1,1.7-1.7h1.69v.339a1.7,1.7,0,0,0,1.7,1.7H80.362a1.7,1.7,0,0,0,1.7-1.7V4.073h1.684a1.7,1.7,0,0,1,1.7,1.7Z" transform="translate(-61)" fill="#fff" stroke="#000" stroke-width="0.5"/>
    <path id="Path_211" data-name="Path 211" d="M247.031,171.865h6.624a.932.932,0,1,0,0-1.865h-6.624a.932.932,0,0,0,0,1.865Z" transform="translate(-232.863 -157.601)" fill="#fff" stroke="#000" stroke-width="0.5"/>
    <path id="Path_214" data-name="Path 214" d="M133.277,140.045l-2.215,2.215-.522-.522a.96.96,0,0,0-1.358,1.358l1.2,1.2a.96.96,0,0,0,1.358,0l2.894-2.894a.96.96,0,0,0-1.358-1.358Z" transform="translate(-123.84 -129.772)" fill="#fff" stroke="#000" stroke-width="0.5"/>
    <path id="Path_39473" data-name="Path 39473" d="M247.031,171.865h6.624a.932.932,0,1,0,0-1.865h-6.624a.932.932,0,0,0,0,1.865Z" transform="translate(-233.02 -150.217)" fill="#fff" stroke="#000" stroke-width="0.5"/>
    <path id="Path_39474" data-name="Path 39474" d="M133.277,140.045l-2.215,2.215-.522-.522a.96.96,0,0,0-1.358,1.358l1.2,1.2a.96.96,0,0,0,1.358,0l2.894-2.894a.96.96,0,0,0-1.358-1.358Z" transform="translate(-123.997 -122.387)" fill="#fff" stroke="#000" stroke-width="0.5"/>
    <path id="Path_39475" data-name="Path 39475" d="M247.031,171.865h6.624a.932.932,0,1,0,0-1.865h-6.624a.932.932,0,0,0,0,1.865Z" transform="translate(-233.02 -142.832)" fill="#fff" stroke="#000" stroke-width="0.5"/>
    <path id="Path_39476" data-name="Path 39476" d="M133.277,140.045l-2.215,2.215-.522-.522a.96.96,0,0,0-1.358,1.358l1.2,1.2a.96.96,0,0,0,1.358,0l2.894-2.894a.96.96,0,0,0-1.358-1.358Z" transform="translate(-123.997 -115.003)" fill="#fff" stroke="#000" stroke-width="0.5"/>
  </g>
</svg>
