<svg xmlns="http://www.w3.org/2000/svg" width="42.602" height="42.596" viewBox="0 0 42.602 42.596">
  <g id="money-transfer_1_" data-name="money-transfer (1)" transform="translate(0.2 0.2)">
    <g id="layer2_3_" transform="translate(0 0)">
      <path id="path814" d="M24.032,0A5.668,5.668,0,0,0,20.6,1.352c-.973.733-1.825,1.453-2.606,2.163H2.108A2.122,2.122,0,0,0,0,5.628V18.285a2.117,2.117,0,0,0,2.108,2.107H26.019a2.122,2.122,0,0,0,2.114-2.107V14.064H30.24A27.046,27.046,0,0,0,34.4,12.85c.423-.127.822-.192.764-.192a.7.7,0,0,0,.706.706H41.49a.7.7,0,0,0,.706-.706V1.41A.7.7,0,0,0,41.49.7H35.868a.7.7,0,0,0-.7.669L24.7.043A5.051,5.051,0,0,0,24.032,0Zm.026,1.415c.147,0,.3.006.467.019L35.162,2.79v8.46a3.842,3.842,0,0,0-1.168.25c-1.427.456-3.429,1.136-3.754,1.158H24.613a.7.7,0,0,1,0-1.408h4.221a.7.7,0,1,0,0-1.407h-.7V5.628a2.127,2.127,0,0,0-2.114-2.113h-5.89c.415-.344.846-.692,1.312-1.043a4.193,4.193,0,0,1,2.617-1.058Zm12.51.7h4.221v9.847H36.568V2.11ZM2.108,4.922H3.518a2.106,2.106,0,0,1-2.11,2.114V5.628A.687.687,0,0,1,2.108,4.922Zm2.816,0c6.851,0,12.045,0,18.282,0a3.533,3.533,0,0,0,3.519,3.52v1.4H24.613a2.11,2.11,0,0,0,0,4.221h2.113v1.407a3.533,3.533,0,0,0-3.519,3.52H4.924a3.534,3.534,0,0,0-3.516-3.52V8.442a3.534,3.534,0,0,0,3.516-3.52Zm19.689,0h1.407a.691.691,0,0,1,.706.706V7.036a2.1,2.1,0,0,1-2.113-2.114ZM14.064,7.738a4.22,4.22,0,1,0,4.221,4.22,4.232,4.232,0,0,0-4.221-4.22Zm0,1.407a2.813,2.813,0,1,1-2.814,2.813,2.8,2.8,0,0,1,2.814-2.813Zm24.616,0a.7.7,0,1,0,.7.7A.7.7,0,0,0,38.679,9.144ZM1.408,16.877a2.106,2.106,0,0,1,2.11,2.114H2.108a.687.687,0,0,1-.7-.706Zm25.318,0v1.408a.691.691,0,0,1-.706.706H24.613a2.1,2.1,0,0,1,2.113-2.114Zm11.946,0a.7.7,0,0,0-.415,1.262l1.132.852H31.647a.7.7,0,1,0,0,1.4H41.49a.7.7,0,0,0,.426-1.261L39.1,17.019a.7.7,0,0,0-.431-.142Zm-7.024,4.917a.7.7,0,0,0-.42,1.266l2.813,2.113a.7.7,0,0,0,.841-1.126L33.754,23.2h7.73a.7.7,0,0,0,0-1.407H31.647ZM20.319,28.131c-2.464.006-5.04,0-6.972,0-1.416-.072-4.3,2.03-5.611,2.11h-.7a.7.7,0,0,0-.707-.7H.7a.7.7,0,0,0-.7.7V41.49a.7.7,0,0,0,.7.706H6.328a.7.7,0,0,0,.707-.706h.7c3.346.166,6.436.687,9.848.706a9.358,9.358,0,0,0,4.143-1.547,57.826,57.826,0,0,0,5-3.244c2.1-1.495,4.156-3.076,6.147-4.7a2.83,2.83,0,0,0,1.044-3.084,2.078,2.078,0,0,0-1.376-1.334,3.148,3.148,0,0,0-1.786.015l-7.979,2.233A2.465,2.465,0,0,0,20.319,28.131Zm0,3.515H14.771a.7.7,0,1,0,0,1.407h5.548a2.449,2.449,0,0,0,1.872-.887l8.942-2.505c.695-.191,1.311-.059,1.438.383a1.425,1.425,0,0,1-.618,1.6c-.011.011-2.81,2.315-6.048,4.623a56.763,56.763,0,0,1-4.869,3.162,9.842,9.842,0,0,1-3.452,1.365c-3.415-.1-6.7-.525-9.848-.7h-.7V31.647h.7c1.542.018,4.453-2.063,5.611-2.11,1.94,0,4.511.006,6.972,0a1.054,1.054,0,1,1,0,2.108Zm-18.911-.7h4.22V40.79H1.408Zm2.108,1.409a.7.7,0,1,0,.7.7A.7.7,0,0,0,3.516,32.351Z" transform="translate(0 0)" fill="#fff" stroke="#000" stroke-width="0.4"/>
    </g>
  </g>
</svg>
