<svg id="Capa_1" enable-background="new 0 0 480.001 480.001" height="512" viewBox="0 0 480.001 480.001" width="512" xmlns="http://www.w3.org/2000/svg"><g><g id="layer2_3_"><path id="path814" d="m273.375.001c-17.06.082-29.345 8.145-39.094 15.375-11.066 8.34-20.766 16.525-29.641 24.609h-180.655c-13.158 0-23.985 10.874-23.985 24.031v143.984c0 13.158 10.827 23.969 23.984 23.969h272c13.158 0 24.047-10.811 24.047-23.969v-48.016h23.969c6.387.832 35.304-10.29 47.297-13.812 4.813-1.444 9.352-2.188 8.688-2.188-.017 4.442 3.589 8.048 8.031 8.031h63.953c4.443.017 8.048-3.589 8.031-8.031v-127.952c.026-4.449-3.583-8.064-8.031-8.047h-63.953c-4.276-.013-7.806 3.339-8.016 7.609l-119.015-15.109c-2.639-.339-5.172-.496-7.61-.484zm.297 16.093c1.67-.012 3.429.063 5.312.219l121 15.422v96.234c-4.666 0-8.094 1.288-13.281 2.844-16.234 5.191-39.009 12.919-42.703 13.172h-64.016c-4.57 0-7.969-3.399-7.969-7.969s3.398-8.047 7.969-8.047h48.016c4.42.018 8.016-3.549 8.031-7.969.018-4.443-3.588-8.049-8.031-8.031h-7.969v-47.953c0-13.158-10.889-24.031-24.047-24.031h-67c4.716-3.917 9.628-7.87 14.922-11.859 11.006-7.789 18.076-11.948 29.766-12.032zm142.313 7.907h48.015v112.016h-48.016v-112.016zm-392 31.984h16.031c0 13.334-10.673 24.021-24 24.047v-16.016c0-4.57 3.398-8.031 7.969-8.031zm32.031 0c77.93.04 137.022 0 207.969 0 0 21.997 18.035 40.047 40.031 40.047v15.938h-24.031c-13.158 0-23.969 10.89-23.969 24.047s10.811 23.969 23.969 23.969h24.031v16c-21.997 0-40.031 18.05-40.031 40.047h-207.969c0-21.981-18.025-40.021-40-40.047v-79.954c21.975-.026 40-18.066 40-40.047zm223.969 0h16c4.57 0 8.031 3.461 8.031 8.031v16.016c-13.35 0-24.031-10.697-24.031-24.047zm-120 32.031c-26.415 0-48.016 21.586-48.016 48s21.601 48 48.016 48 48.016-21.586 48.016-48-21.601-48-48.016-48zm0 16c17.768 0 32 14.233 32 32s-14.232 32-32 32-32.016-14.233-32.016-32 14.248-32 32.016-32zm280.015 0c-4.418 0-8 3.566-8 7.984s3.582 8 8 8 8-3.582 8-8-3.581-7.984-8-7.984zm-423.984 87.969c13.327.026 24 10.713 24 24.047h-16.031c-4.57 0-7.969-3.461-7.969-8.031zm288 0v16.016c0 4.57-3.461 8.031-8.031 8.031h-16c0-13.35 10.681-24.047 24.031-24.047zm135.891 0c-2.488.028-4.821 1.212-6.312 3.203-2.623 3.525-1.911 8.506 1.594 11.156l12.875 9.688h-88.064c-4.418-.018-8.014 3.551-8.031 7.969.018 4.418 3.613 7.986 8.031 7.969h111.969c7.624-.03 10.888-9.697 4.844-14.344l-32-24.031c-1.413-1.065-3.138-1.631-4.906-1.61zm-79.907 55.937c-7.686.012-10.935 9.801-4.781 14.406l32 24.031c3.525 2.623 8.506 1.911 11.156-1.594 2.665-3.536 1.951-8.565-1.594-11.219l-12.812-9.625h87.938c4.4-.009 7.967-3.569 7.984-7.969.018-4.424-3.56-8.023-7.984-8.031h-111.907zm-128.859 72.079c-28.024.066-57.337.018-79.312 0-16.111-.822-48.873 23.092-63.828 24h-7.969c-.018-4.424-3.623-7.994-8.047-7.969h-64.016c-4.394.018-7.951 3.575-7.969 7.969v127.969c-.017 4.418 3.551 8.014 7.969 8.031h64.016c4.449.026 8.064-3.583 8.047-8.031h7.968c38.058 1.889 73.215 7.815 112.031 8.031 13.534 0 29.012-7.421 47.125-17.594 18.113-10.172 38.133-23.56 56.859-36.906 23.913-17.001 47.279-34.987 69.922-53.453 9.811-8.443 16.529-20.659 11.875-35.078-2.447-7.81-8.939-13.106-15.656-15.172s-13.741-1.682-20.312.172l-90.766 25.406c-.335-15.082-12.755-27.412-27.937-27.375zm0 39.984h-63.109c-4.418-.018-8.014 3.551-8.031 7.969-.018 4.443 3.589 8.049 8.031 8.031h63.109c8.544 0 16.147-3.988 21.297-10.094l101.719-28.5c7.905-2.169 14.911-.672 16.359 4.359 1.929 6.952-.1 12.16-7.031 18.164-.121.123-31.966 26.337-68.797 52.586-18.451 13.15-38.12 26.269-55.391 35.969-17.271 9.699-32.797 15.531-39.266 15.531-38.851-1.092-76.26-5.97-112.031-7.969h-7.969v-96.031h7.969c17.542.209 50.65-23.472 63.828-24 22.063.021 51.319.066 79.312 0 6.768-.016 12 5.217 12 11.984-.065 7.673-6.285 12.07-11.999 12.001zm-215.125-8.016h48v112.031h-48zm23.984 16.032c-4.418 0-8 3.582-8 8s3.582 8 8 8 8-3.582 8-8c0-4.419-3.581-8-8-8z"/></g></g></svg>