<svg xmlns="http://www.w3.org/2000/svg" width="35.404" height="34.224" viewBox="0 0 35.404 34.224">
  <g id="website" transform="translate(-16 -24)">
    <path id="Path_39880" data-name="Path 39880" d="M49.634,24H17.77A1.772,1.772,0,0,0,16,25.77V56.453a1.772,1.772,0,0,0,1.77,1.77H49.634a1.772,1.772,0,0,0,1.77-1.77V25.77A1.772,1.772,0,0,0,49.634,24ZM17.77,25.18H49.634a.591.591,0,0,1,.59.59v2.95H17.18V25.77A.591.591,0,0,1,17.77,25.18ZM49.634,57.044H17.77a.591.591,0,0,1-.59-.59V29.9H50.224V56.453A.591.591,0,0,1,49.634,57.044Z" fill="#0a84ff"/>
    <circle id="Ellipse_226" data-name="Ellipse 226" cx="0.773" cy="0.773" r="0.773" transform="translate(22.955 26.318)" fill="#0a84ff"/>
    <circle id="Ellipse_227" data-name="Ellipse 227" cx="0.773" cy="0.773" r="0.773" transform="translate(20.637 26.318)" fill="#0a84ff"/>
    <circle id="Ellipse_228" data-name="Ellipse 228" cx="0.773" cy="0.773" r="0.773" transform="translate(18.318 26.318)" fill="#0a84ff"/>
    <path id="Path_39881" data-name="Path 39881" d="M91.733,136H64.59a.59.59,0,0,0-.59.59v9.441a.59.59,0,0,0,.59.59H91.733a.59.59,0,0,0,.59-.59V136.59A.59.59,0,0,0,91.733,136Zm-9.673,8.738,1.413-1.413,2.116,2.116h-3Zm-.948.7H76.391l2.36-3.147Zm-6.2,0H70.444l3-4.282,2.262,3.232Zm16.227,0H87.257l-3.368-3.368a.59.59,0,0,0-.835,0l-1.711,1.711-2.121-2.828a.59.59,0,0,0-.944,0L76.448,143.4l-2.524-3.606a.59.59,0,0,0-.967,0L69,145.441H65.18V137.18H91.143Z" transform="translate(-44.46 -103.739)" fill="#0a84ff"/>
    <ellipse id="Ellipse_229" data-name="Ellipse 229" cx="0.386" cy="0.773" rx="0.386" ry="0.773" transform="translate(36.865 35.592)" fill="#0a84ff"/>
    <path id="Path_39882" data-name="Path 39882" d="M220.13,392h-2.36a1.77,1.77,0,1,0,0,3.54h2.36a1.77,1.77,0,1,0,0-3.54Zm0,2.36h-2.36a.59.59,0,0,1,0-1.18h2.36a.59.59,0,0,1,0,1.18Z" transform="translate(-185.248 -340.857)" fill="#0a84ff"/>
    <path id="Path_39883" data-name="Path 39883" d="M207.671,313.18a.59.59,0,1,0,0-1.18H200.59a.59.59,0,0,0,0,1.18Z" transform="translate(-170.429 -266.758)" fill="#0a84ff"/>
    <path id="Path_39884" data-name="Path 39884" d="M173.571,344H160.59a.59.59,0,1,0,0,1.18h12.981a.59.59,0,1,0,0-1.18Z" transform="translate(-133.379 -296.398)" fill="#0a84ff"/>
    <path id="Path_39885" data-name="Path 39885" d="M113.77,344h-1.18a.59.59,0,1,0,0,1.18h1.18a.59.59,0,1,0,0-1.18Z" transform="translate(-88.919 -296.398)" fill="#0a84ff"/>
    <path id="Path_39886" data-name="Path 39886" d="M369.77,344h-1.18a.59.59,0,1,0,0,1.18h1.18a.59.59,0,1,0,0-1.18Z" transform="translate(-326.037 -296.398)" fill="#0a84ff"/>
  </g>
</svg>
